<svg width="67" height="46" viewBox="0 0 67 46" fill="none" xmlns="http://www.w3.org/2000/svg">
<path d="M1 1L7.21472 38.2992C7.49596 39.9855 8.3663 41.5174 9.67092 42.6223C10.9755 43.7273 12.6298 44.3335 14.3394 44.3333H52.6606C54.3702 44.3335 56.0245 43.7273 57.3291 42.6223C58.6337 41.5174 59.504 39.9855 59.7853 38.2992L66 1" stroke="#B89FAE" stroke-width="2" stroke-linecap="round" stroke-linejoin="round"/>
<path d="M2.75513 11.7071C3.36179 11.7817 3.9805 11.8238 4.61124 11.8334C7.46402 11.8659 10.1687 11.1907 11.8335 10.0279C13.4982 8.87233 16.2029 8.19706 19.0557 8.22233C21.9085 8.19706 24.6132 8.87233 26.2779 10.0279C27.9426 11.1907 30.6473 11.8659 33.5001 11.8334C36.3529 11.8659 39.0576 11.1907 40.7223 10.0279C42.3871 8.87233 45.0918 8.19706 47.9446 8.22233C50.7973 8.19706 53.5021 8.87233 55.1668 10.0279C56.8315 11.1907 59.5362 11.8659 62.389 11.8334C63.0053 11.8286 63.6108 11.7877 64.2054 11.7107M33.5001 26.2779H33.5362" stroke="#B89FAE" stroke-width="2" stroke-linecap="round" stroke-linejoin="round"/>
</svg>
