<svg width="65" height="65" viewBox="0 0 65 65" fill="none" xmlns="http://www.w3.org/2000/svg">
<path d="M57.5095 9.64972e-05C56.2519 0.00787404 54.6041 0.509277 52.5909 1.63437C38.0142 0.438617 20.4222 2.93736 8.69723 7.27012C0.19987 2.65108 -1.20639 7.19962 2.65552 13.2582C-2.07038 29.762 0.00138713 46.5332 5.02747 58.5316C3.47871 66.4139 7.41392 66.0606 10.8191 62.9089C34.841 64.4147 50.4637 60.1751 60.0362 51.546C63.4136 54.7282 65.8964 50.5522 64.519 45.4471C66.1961 33.564 63.2431 17.7607 59.4419 6.76127C61.3215 2.87696 60.5703 -0.0192646 57.5095 9.64972e-05ZM7.23653 12.9009C14.6427 23.0026 14.7781 46.0597 10.2958 59.7984C11.2869 44.7546 10.6482 22.7852 7.23653 12.9009Z" fill="#B89FAE"/>
</svg>
