<svg width="65" height="60" viewBox="0 0 65 60" fill="none" xmlns="http://www.w3.org/2000/svg">
<path d="M13.4918 34.8721C11.1557 38.7662 9.25647 42.8852 7.82578 47.1606C7.75823 47.3618 7.63416 47.5414 7.46709 47.6798C7.30003 47.8183 7.09638 47.9102 6.87837 47.9456C6.66037 47.9811 6.43637 47.9586 6.23081 47.8807C6.02525 47.8028 5.84603 47.6724 5.7127 47.5038C2.6201 43.4118 0.664377 38.6369 0.028535 33.6259C0.00787781 33.4602 0.0250858 33.2922 0.0789716 33.1334C0.132857 32.9747 0.222139 32.829 0.340656 32.7064C0.459174 32.5838 0.604108 32.4873 0.765459 32.4234C0.926811 32.3596 1.10074 32.3299 1.27525 32.3365C5.47123 32.4929 9.60602 33.3511 13.4918 34.8721ZM5.82439 15.3288C12.4644 16.035 18.9113 17.9047 24.8421 20.8442C26.9846 18.8292 29.2636 16.9511 31.6643 15.2221C25.2145 11.579 18.1299 9.07739 10.7509 7.83746C10.5672 7.80603 10.3783 7.81572 10.1992 7.86577C10.0201 7.91582 9.85553 8.00487 9.71848 8.12592C7.91008 9.75204 6.3073 11.575 4.94294 13.5577C4.83172 13.7228 4.76645 13.9123 4.75332 14.1083C4.74018 14.3043 4.77961 14.5003 4.86788 14.6776C4.95614 14.855 5.09032 15.0079 5.25771 15.1218C5.42509 15.2358 5.62014 15.307 5.82439 15.3288ZM64.8637 56.9279C64.7009 56.4731 64.3921 56.0791 63.9812 55.802C63.5703 55.5249 63.0784 55.3788 62.5755 55.3846H47.8927C51.5589 53.177 54.7086 50.2696 57.1443 46.8446C59.5799 43.4197 61.2491 39.5509 62.0472 35.4807C62.0872 35.2811 62.0713 35.0749 62.001 34.883C61.9308 34.6912 61.8088 34.5204 61.6474 34.3881C61.4859 34.2558 61.2907 34.1666 61.0816 34.1295C60.8725 34.0924 60.6568 34.1087 60.4564 34.1769C55.3036 35.885 50.6183 38.6776 46.7467 42.3483C42.875 46.0191 39.9159 50.4743 38.088 55.3846H32.9925C35.0505 49.0432 38.7525 43.3017 43.7545 38.6938C48.7566 34.0858 54.8964 30.7609 61.6035 29.0279C61.8726 28.9565 62.1076 28.7982 62.2683 28.58C62.429 28.3617 62.5056 28.0969 62.4849 27.8307C62.3366 25.8239 61.9745 23.8366 61.4042 21.9C61.3195 21.6065 61.1168 21.3569 60.8403 21.2056C60.5638 21.0543 60.2359 21.0136 59.9281 21.0923C50.8516 23.3402 42.6264 27.9975 36.2037 34.5254C29.781 41.0533 25.4233 49.1853 23.6346 57.9807C23.5728 58.2777 23.6357 58.586 23.8096 58.8391C23.9835 59.0922 24.2546 59.2698 24.5643 59.3336C26.7391 59.7791 28.9572 60.0025 31.1813 60H62.5755C62.9622 60.0014 63.3436 59.9141 63.6877 59.7454C64.0317 59.5767 64.3283 59.3315 64.5525 59.0304C64.7768 58.7294 64.9221 58.3813 64.9762 58.0154C65.0304 57.6495 64.9918 57.2765 64.8637 56.9279ZM1.16959 27.7154C6.30466 27.8622 11.3639 28.9389 16.0788 30.8884C17.6967 28.6018 19.4663 26.4165 21.3766 24.3461C15.5029 21.6318 9.1264 20.0516 2.61252 19.6961C2.34808 19.6835 2.08665 19.7544 1.86847 19.8977C1.65029 20.0411 1.48746 20.2489 1.40505 20.4894C0.727184 22.4201 0.258839 24.4123 0.0074044 26.4346C-0.0109936 26.5926 0.00498376 26.7526 0.054334 26.9044C0.103684 27.0562 0.185342 27.1967 0.294185 27.317C0.403027 27.4372 0.536703 27.5347 0.686828 27.6032C0.836953 27.6718 1.00028 27.71 1.16658 27.7154H1.16959ZM18.4545 4.80573C24.6548 6.50181 30.5675 9.04127 36.0112 12.3461C39.7108 10.0918 43.6339 8.19126 47.7236 6.67208C47.93 6.59412 48.1099 6.46333 48.2436 6.29405C48.3773 6.12478 48.4595 5.92357 48.4814 5.71253C48.5032 5.50149 48.4638 5.28879 48.3674 5.09777C48.271 4.90676 48.1213 4.74483 47.9349 4.62977C43.5503 1.98328 38.5472 0.417481 33.3738 0.0726309C28.2003 -0.272219 23.0182 0.614657 18.2915 2.6538C18.0693 2.75245 17.8838 2.91335 17.7596 3.11513C17.6354 3.3169 17.5783 3.55002 17.596 3.78351C17.6137 4.01701 17.7053 4.23984 17.8586 4.42242C18.012 4.605 18.2198 4.73868 18.4545 4.80573ZM57.7456 16.8778C57.924 16.8311 58.0888 16.7459 58.2273 16.6286C58.3658 16.5114 58.4742 16.3653 58.5442 16.2017C58.6142 16.0381 58.6439 15.8612 58.6311 15.6849C58.6182 15.5085 58.5632 15.3374 58.4701 15.1846C57.3714 13.3476 56.0744 11.6257 54.6002 10.0471C54.4461 9.8781 54.2439 9.75566 54.0182 9.6947C53.7925 9.63374 53.5531 9.6369 53.3293 9.70381C43.1078 12.8108 33.8852 18.359 26.5342 25.8232C19.1832 33.2874 13.9471 42.4207 11.3214 52.3586C11.265 52.5761 11.2761 52.8046 11.3533 53.0161C11.4304 53.2277 11.5704 53.4132 11.7561 53.55C13.4931 54.8619 15.37 55.9951 17.3557 56.9307C17.5209 57.01 17.7029 57.052 17.8877 57.0535C18.0725 57.055 18.2552 57.0159 18.4218 56.9393C18.5883 56.8627 18.7342 56.7505 18.8482 56.6115C18.9622 56.4725 19.0413 56.3103 19.0794 56.1375C21.1648 46.8461 25.8698 38.2767 32.6851 31.3567C39.5005 24.4368 48.1666 19.4299 57.7456 16.8778Z" fill="#B89FAE"/>
</svg>
